<?xml version="1.0" encoding="UTF-8" standalone="no" ?>
<!DOCTYPE svg PUBLIC "-//W3C//DTD SVG 1.1//EN" "http://www.w3.org/Graphics/SVG/1.1/DTD/svg11.dtd">
<svg xmlns="http://www.w3.org/2000/svg" xmlns:xlink="http://www.w3.org/1999/xlink" version="1.1" width="1080" height="1080" viewBox="0 0 1080 1080" xml:space="preserve">
<desc>Created with Fabric.js 5.2.4</desc>
<defs>
</defs>
<rect x="0" y="0" width="100%" height="100%" fill="transparent"></rect>
<g transform="matrix(1 0 0 1 540 540)" id="2d975df1-f2d6-4f27-ac1d-8d1ae5e9ce1c"  >
<rect style="stroke: none; stroke-width: 1; stroke-dasharray: none; stroke-linecap: butt; stroke-dashoffset: 0; stroke-linejoin: miter; stroke-miterlimit: 4; fill: rgb(255,255,255); fill-rule: nonzero; opacity: 1; visibility: hidden;" vector-effect="non-scaling-stroke"  x="-540" y="-540" rx="0" ry="0" width="1080" height="1080" />
</g>
<g transform="matrix(1 0 0 1 540 540)" id="9bf93728-bf52-4ca0-a60c-d41074cc46da"  >
</g>
<g transform="matrix(NaN NaN NaN NaN 0 0)"  >
<g style=""   >
</g>
</g>
<g transform="matrix(45 0 0 45 540 540)"  >
<path style="stroke: rgb(255,255,255); stroke-width: 1; stroke-dasharray: none; stroke-linecap: butt; stroke-dashoffset: 0; stroke-linejoin: miter; stroke-miterlimit: 4; fill: rgb(255,255,255); fill-rule: nonzero; opacity: 1;"  transform=" translate(-12, -12)" d="M 19 0 L 5 0 C 2.239 0 0 2.239 0 5 L 0 19 C 0 21.761 2.239 24 5 24 L 19 24 C 21.762 24 24 21.761 24 19 L 24 5 C 24 2.239 21.762 0 19 0 z M 14.533999999999999 19.59 C 14.129 19.668 13.999999999999998 19.419 13.999999999999998 19.206 L 13.999999999999998 17.011 C 13.999999999999998 16.264 13.737999999999998 15.777999999999999 13.449999999999998 15.53 C 15.231999999999998 15.331999999999999 17.104 14.655 17.104 11.582999999999998 C 17.104 10.708999999999998 16.791999999999998 9.994999999999997 16.281 9.435999999999998 C 16.363 9.233999999999998 16.637 8.419999999999998 16.201999999999998 7.318999999999998 C 16.201999999999998 7.318999999999998 15.530999999999999 7.103999999999998 14.003999999999998 8.138999999999998 C 13.363999999999997 7.958999999999998 12.679999999999998 7.871999999999997 11.999999999999998 7.867999999999998 C 11.319999999999999 7.870999999999998 10.635999999999997 7.958999999999998 9.996999999999998 8.136999999999997 C 8.468999999999998 7.101999999999997 7.796999999999998 7.316999999999997 7.796999999999998 7.316999999999997 C 7.362999999999998 8.418999999999997 7.636999999999998 9.231999999999996 7.719999999999998 9.434999999999997 C 7.207999999999998 9.994999999999997 6.895999999999998 10.707999999999997 6.895999999999998 11.581999999999997 C 6.895999999999998 14.645999999999997 8.762999999999998 15.332999999999997 10.540999999999999 15.535999999999998 C 10.312 15.735999999999997 10.104999999999999 16.087999999999997 10.032999999999998 16.605999999999998 C 9.575999999999997 16.81 8.418999999999997 17.162999999999997 7.704999999999998 15.939999999999998 C 7.704999999999998 15.939999999999998 7.281999999999998 15.171999999999997 6.477999999999998 15.114999999999998 C 6.477999999999998 15.114999999999998 5.697999999999998 15.104999999999999 6.422999999999998 15.601999999999999 C 6.422999999999998 15.601999999999999 6.947999999999999 15.847999999999999 7.3119999999999985 16.772 C 7.3119999999999985 16.772 7.774999999999999 18.2 9.999999999999998 17.715999999999998 L 9.999999999999998 19.205 C 9.999999999999998 19.415999999999997 9.870999999999999 19.663999999999998 9.471999999999998 19.59 C 6.291999999999998 18.533 3.9999999999999973 15.533999999999999 3.9999999999999973 12 C 3.9999999999999973 7.581 7.581999999999997 4 11.999999999999996 4 C 16.417999999999996 4 19.999999999999996 7.5809999999999995 19.999999999999996 12 C 19.999999999999996 15.533 17.710999999999995 18.531 14.533999999999995 19.59 z" stroke-linecap="round" />
</g>
</svg>